<svg width="18" height="15" viewBox="0 0 18 15" fill="none" xmlns="http://www.w3.org/2000/svg">
<path d="M3.24507 3.85047L6.11693 4.89616C7.10665 2.60285 8.54159 0.838003 10.0263 0.0108475C7.32968 -0.126684 4.71686 1.05035 3.03639 3.15522C2.84823 3.39147 2.96157 3.74725 3.24507 3.85047ZM6.96462 5.20497L13.6719 7.64706C14.6776 4.23325 14.1978 1.13163 12.4729 0.503878C12.2648 0.427941 12.0474 0.391378 11.8235 0.391378C10.1917 0.39166 8.2159 2.33678 6.96462 5.20497ZM14.6667 1.70172C14.8416 2.16016 14.9713 2.67485 15.0379 3.25394C15.1994 4.65709 14.998 6.2979 14.505 7.95025L17.3911 9.001C17.6749 9.10421 17.9905 8.90453 17.9978 8.60246C18.0631 5.91119 16.8191 3.33072 14.6667 1.70172ZM15.7501 12.5996H9.02984L10.8563 7.57984L9.16484 6.9639L7.11452 12.5993H0.450001C0.201376 12.5993 0 12.8007 0 13.0496V13.9499C0 14.1985 0.201376 14.4001 0.450001 14.4001H15.7501C15.9987 14.4001 16.2001 14.1985 16.2001 13.9499V13.0496C16.2001 12.801 15.9987 12.5996 15.7501 12.5996Z" fill="#26ADE3"/>
</svg>
