<svg width="102" height="102" viewBox="0 0 102 102" fill="none" xmlns="http://www.w3.org/2000/svg">
<circle cx="51" cy="51" r="49.5" fill="white" stroke="#26ADE3" stroke-width="3"/>
<path d="M69.5158 32.7658C67.6063 30.8245 65.3301 29.282 62.8195 28.2279C60.3088 27.1738 57.6138 26.629 54.8908 26.6252H54.8205C52.1073 26.6146 49.4191 27.1438 46.9123 28.1819C44.4056 29.22 42.1303 30.7463 40.2189 32.672L32.3205 40.6642L24.7267 48.3517C24.0342 49.0608 23.6485 50.0138 23.6529 51.005C23.6573 51.9961 24.0514 52.9457 24.7502 53.6486L31.4533 60.3517C31.7977 60.7044 32.2099 60.9838 32.665 61.1731C33.1201 61.3624 33.6088 61.4577 34.1017 61.4533H34.1252C34.6233 61.4551 35.1167 61.3564 35.5758 61.1631C36.0349 60.9698 36.4503 60.6859 36.7971 60.3283L44.2971 52.6408L52.1721 44.6017C52.8698 43.9138 53.8078 43.5243 54.7876 43.5155C55.7674 43.5068 56.7121 43.8795 57.4221 44.5548C57.7708 44.8973 58.0478 45.3058 58.237 45.7565C58.4261 46.2072 58.5235 46.6911 58.5236 47.1798C58.5273 48.2322 58.1144 49.2433 57.3752 49.9923L49.383 57.7267L41.6955 65.2033C41.3352 65.5474 41.0476 65.9603 40.8497 66.4175C40.6518 66.8748 40.5476 67.367 40.5432 67.8652C40.5388 68.3635 40.6344 68.8575 40.8243 69.3181C41.0141 69.7787 41.2944 70.1966 41.6486 70.547L48.3517 77.2736C49.0604 77.9614 50.0079 78.348 50.9955 78.3524C51.983 78.3567 52.9339 77.9785 53.6486 77.297L61.3596 69.7033L69.2346 61.9923C77.2971 53.9298 77.4377 40.8283 69.5158 32.7658ZM34.1017 57.7033L27.3986 51.0002L33.6564 44.6486L40.3361 51.3283L34.1017 57.7033ZM51.0236 74.6017L44.2971 67.8986L50.6955 61.6877L57.3752 68.3673L51.0236 74.6017ZM60.0471 65.7423L53.3908 59.0861L60.0002 52.6642H60.0236C60.7458 51.9417 61.3167 51.0825 61.7031 50.1368C62.0894 49.1911 62.2833 48.1779 62.2736 47.1564C62.2675 46.1838 62.0698 45.2219 61.6919 44.3257C61.3141 43.4295 60.7634 42.6165 60.0713 41.9331C59.3792 41.2497 58.5593 40.7093 57.6583 40.3428C56.7574 39.9763 55.7931 39.7909 54.8205 39.797C53.8337 39.7913 52.8556 39.9809 51.9424 40.355C51.0293 40.7291 50.1993 41.2803 49.5002 41.9767L42.9611 48.6564L36.2814 41.9767L42.8674 35.3205C44.435 33.7484 46.2983 32.5021 48.3498 31.6534C50.4012 30.8046 52.6004 30.3702 54.8205 30.3752H54.8674C57.0982 30.3781 59.3061 30.8252 61.3624 31.6903C63.4186 32.5555 65.282 33.8214 66.8439 35.4142C73.3127 41.9767 73.1955 52.7345 66.5861 59.3439L60.0471 65.7423Z" fill="#26ADE3"/>
</svg>
