<svg width="18" height="18" viewBox="0 0 18 18" fill="none" xmlns="http://www.w3.org/2000/svg">
<path d="M8.25 11.5607V15.0002H9.75V11.5607C9.75 11.1662 9.5895 10.7792 9.3105 10.5002L7.8105 9.00015L9.75 7.06065L11.25 8.56065C11.529 8.83965 11.916 9.00015 12.3105 9.00015H15V7.50015H12.3105L9.53025 4.7199C9.46066 4.65019 9.37801 4.59489 9.28702 4.55716C9.19604 4.51942 9.0985 4.5 9 4.5C8.9015 4.5 8.80397 4.51942 8.71298 4.55716C8.622 4.59489 8.53934 4.65019 8.46975 4.7199L6 7.18965C5.7165 7.47315 5.5605 7.84965 5.5605 8.25015C5.5605 8.65065 5.7165 9.02715 6 9.31065L8.25 11.5607Z" fill="#26ADE3"/>
<path d="M12 5.25C12.8284 5.25 13.5 4.57843 13.5 3.75C13.5 2.92157 12.8284 2.25 12 2.25C11.1716 2.25 10.5 2.92157 10.5 3.75C10.5 4.57843 11.1716 5.25 12 5.25Z" fill="#26ADE3"/>
<path d="M13.5 10.5C11.8455 10.5 10.5 11.8455 10.5 13.5C10.5 15.1545 11.8455 16.5 13.5 16.5C15.1545 16.5 16.5 15.1545 16.5 13.5C16.5 11.8455 15.1545 10.5 13.5 10.5ZM13.5 15C12.6727 15 12 14.3273 12 13.5C12 12.6727 12.6727 12 13.5 12C14.3273 12 15 12.6727 15 13.5C15 14.3273 14.3273 15 13.5 15ZM4.5 16.5C6.1545 16.5 7.5 15.1545 7.5 13.5C7.5 11.8455 6.1545 10.5 4.5 10.5C2.8455 10.5 1.5 11.8455 1.5 13.5C1.5 15.1545 2.8455 16.5 4.5 16.5ZM4.5 12C5.32725 12 6 12.6727 6 13.5C6 14.3273 5.32725 15 4.5 15C3.67275 15 3 14.3273 3 13.5C3 12.6727 3.67275 12 4.5 12Z" fill="#26ADE3"/>
</svg>
