<svg width="24" height="25" viewBox="0 0 24 25" xmlns="http://www.w3.org/2000/svg">
<path d="M19.447 5.84506C19.2463 5.16465 18.8299 4.56795 18.2604 4.14495C17.6909 3.72195 16.9994 3.49561 16.29 3.50006C15.4679 3.5008 14.6758 3.80903 14.0694 4.36417C13.463 4.91931 13.0861 5.6812 13.013 6.50006H10.988C10.9139 5.68034 10.5358 4.91799 9.9281 4.36286C9.32042 3.80772 8.52707 3.49996 7.704 3.50006C6.99558 3.49659 6.30521 3.72341 5.73689 4.14635C5.16857 4.5693 4.75308 5.16547 4.553 5.84506L2.042 14.2131C2.01449 14.3063 2.00035 14.4029 2 14.5001V15.5001C2.00159 16.8258 2.52902 18.0968 3.46657 19.0342C4.40413 19.9716 5.67523 20.4987 7.001 20.5001C7.97268 20.4984 8.92285 20.2138 9.73547 19.6811C10.5481 19.1483 11.188 18.3905 11.577 17.5001H12.423C12.812 18.3905 13.4519 19.1483 14.2645 19.6811C15.0771 20.2138 16.0273 20.4984 16.999 20.5001C18.3249 20.4987 19.5962 19.9714 20.5338 19.0338C21.4714 18.0963 21.9987 16.825 22 15.4991V14.5001C22 14.4021 21.985 14.3061 21.958 14.2131L19.447 5.84506ZM7.001 18.5001C6.20558 18.499 5.44303 18.1826 4.88049 17.6203C4.31796 17.0579 4.00132 16.2955 4 15.5001C4 15.4241 4.017 15.3531 4.022 15.2781C4.07671 14.5249 4.41394 13.8201 4.96616 13.305C5.51838 12.7899 6.24482 12.5024 7 12.5001C7.79565 12.5001 8.55871 12.8161 9.12132 13.3787C9.68393 13.9414 10 14.7044 10 15.5001V15.5091C9.99657 16.3027 9.67925 17.0626 9.11734 17.6231C8.55543 18.1835 7.7946 18.4988 7.001 18.5001ZM16.999 18.5001C16.2054 18.4988 15.4446 18.1835 14.8827 17.6231C14.3208 17.0626 14.0034 16.3027 14 15.5091V15.5001C13.9999 15.1061 14.0775 14.716 14.2282 14.352C14.3789 13.988 14.5998 13.6572 14.8783 13.3786C15.4408 12.8159 16.2039 12.4997 16.9995 12.4996C17.7951 12.4994 18.5583 12.8154 19.121 13.3779C19.6837 13.9404 19.9999 14.7034 20 15.4991C19.9989 16.2947 19.6824 17.0574 19.1199 17.6199C18.5573 18.1825 17.7946 18.499 16.999 18.5001Z"/>
</svg>
