<svg width="48" height="48" viewBox="0 0 48 48" fill="none" xmlns="http://www.w3.org/2000/svg">
<g filter="url(#filter0_d_1082_9385)">
<circle cx="24" cy="24" r="20" fill="#010101"/>
</g>
<path d="M33 17.98C29.67 17.65 26.32 17.48 22.98 17.48C21 17.48 19.02 17.58 17.04 17.78L15 17.98" stroke="white" stroke-width="1.5" stroke-linecap="round" stroke-linejoin="round"/>
<path d="M20.5 16.97L20.72 15.66C20.88 14.71 21 14 22.69 14H25.31C27 14 27.13 14.75 27.28 15.67L27.5 16.97" stroke="white" stroke-width="1.5" stroke-linecap="round" stroke-linejoin="round"/>
<path d="M30.8504 21.1396L30.2004 31.2096C30.0904 32.7796 30.0004 33.9996 27.2104 33.9996H20.7904C18.0004 33.9996 17.9104 32.7796 17.8004 31.2096L17.1504 21.1396" stroke="white" stroke-width="1.5" stroke-linecap="round" stroke-linejoin="round"/>
<path d="M22.3301 28.5H25.6601" stroke="white" stroke-width="1.5" stroke-linecap="round" stroke-linejoin="round"/>
<path d="M21.5 24.5H26.5" stroke="white" stroke-width="1.5" stroke-linecap="round" stroke-linejoin="round"/>
<defs>
<filter id="filter0_d_1082_9385" x="0" y="0" width="48" height="48" filterUnits="userSpaceOnUse" color-interpolation-filters="sRGB">
<feFlood flood-opacity="0" result="BackgroundImageFix"/>
<feColorMatrix in="SourceAlpha" type="matrix" values="0 0 0 0 0 0 0 0 0 0 0 0 0 0 0 0 0 0 127 0" result="hardAlpha"/>
<feOffset/>
<feGaussianBlur stdDeviation="2"/>
<feComposite in2="hardAlpha" operator="out"/>
<feColorMatrix type="matrix" values="0 0 0 0 0.776471 0 0 0 0 0.129412 0 0 0 0 0.152941 0 0 0 0.25 0"/>
<feBlend mode="normal" in2="BackgroundImageFix" result="effect1_dropShadow_1082_9385"/>
<feBlend mode="normal" in="SourceGraphic" in2="effect1_dropShadow_1082_9385" result="shape"/>
</filter>
</defs>
</svg>
