<svg width="24" height="25" viewBox="0 0 24 25" xmlns="http://www.w3.org/2000/svg">
<path d="M15.6814 3.29713C15.7035 3.3035 15.7279 3.308 15.75 3.31475V1.76975C14.6471 1.43937 13.3658 1.25 11.9996 1.25C10.6335 1.25 9.35287 1.43937 8.25 1.76975V3.31475C8.27175 3.308 8.29575 3.30387 8.3175 3.2975C6.04013 3.9635 4.5 5.2265 4.5 6.67737V18.3234C4.5 19.7754 6.04275 21.0391 8.3235 21.7051C8.29987 21.6976 8.27325 21.6931 8.25 21.686V23.231C9.35287 23.561 10.6335 23.75 11.9996 23.75C13.3658 23.75 14.6471 23.561 15.75 23.2306V21.6856C15.726 21.6931 15.6994 21.6976 15.6754 21.7048C17.9569 21.0391 19.5 19.775 19.5 18.323V6.67737C19.5 5.2265 17.9595 3.96312 15.6814 3.29713ZM9.03863 3.8405C10.0219 3.67475 11.019 3.602 12.0146 3.59562C13.0118 3.59975 14.0077 3.67213 14.9921 3.83825C15.9742 4.004 16.9515 4.23837 17.8785 4.6265C16.899 4.4645 15.9225 4.35462 14.946 4.27287C13.9695 4.19788 12.9919 4.151 12.0161 4.15775C11.0381 4.15437 10.062 4.20163 9.08438 4.27663C8.10788 4.35838 7.13138 4.46562 6.15188 4.6265C7.07888 4.23837 8.0565 4.0055 9.03863 3.8405ZM8.51587 5.48938C9.675 5.32438 10.8454 5.252 12.0142 5.24563C13.185 5.24975 14.3546 5.32137 15.5141 5.4875C16.6725 5.64875 17.8245 5.89363 18.9368 6.2765C17.7821 6.10625 16.6275 6.00875 15.4751 5.9225C14.3224 5.8475 13.1685 5.801 12.0157 5.80775C10.8615 5.80438 9.70875 5.85162 8.55487 5.92625C7.40212 6.01213 6.2475 6.107 5.09325 6.2765C6.20512 5.89325 7.3575 5.64913 8.51587 5.48938ZM8.52262 7.15963C9.681 7.01113 10.8488 6.9485 12.0146 6.94438C13.1824 6.95075 14.3486 7.01562 15.507 7.166C16.6646 7.31112 17.8166 7.53275 18.9371 7.877C17.7803 7.745 16.6256 7.67 15.4733 7.60025C14.3201 7.54063 13.167 7.50087 12.0157 7.5065C10.8619 7.50313 9.70988 7.54063 8.55675 7.59912C7.40438 7.66925 6.24975 7.74125 5.09363 7.877C6.21188 7.52413 7.36462 7.30288 8.52262 7.15963ZM8.5005 8.84075C9.65775 8.70988 10.8218 8.6555 11.9843 8.65025C13.149 8.6555 14.3122 8.71025 15.4695 8.8415C16.6264 8.96788 17.7787 9.16325 18.9067 9.47C17.7487 9.37813 16.5938 9.32862 15.4418 9.27725C14.289 9.23637 13.137 9.20638 11.9858 9.212C10.833 9.20863 9.68138 9.23825 8.52825 9.27913C7.37625 9.3305 6.22162 9.37775 5.06325 9.47C6.19087 9.161 7.34362 8.96563 8.5005 8.84075ZM18.9368 11.0203L15.4706 10.9801C14.3183 10.9707 13.1659 10.9565 12.015 10.9618C10.863 10.9584 9.71137 10.9715 8.55863 10.9809L5.09325 11.0203C6.23212 10.7825 7.38562 10.6325 8.541 10.5406C9.69637 10.4424 10.8559 10.4041 12.0142 10.4C13.1741 10.406 14.3329 10.4458 15.4886 10.5451C16.644 10.6381 17.7968 10.7878 18.9368 11.0203ZM14.9764 21.1595C13.9931 21.3252 12.9964 21.398 12.0007 21.4044C11.0032 21.4002 10.0069 21.3279 9.02325 21.1618C8.04113 20.9964 7.0635 20.7616 6.13687 20.3735C7.11637 20.5355 8.09288 20.6454 9.069 20.7271C10.0455 20.8021 11.0231 20.849 11.9989 20.8422C12.9769 20.8456 13.953 20.7984 14.9303 20.7234C15.9067 20.6416 16.8832 20.5344 17.8631 20.3735C16.9361 20.7616 15.9585 20.9945 14.9764 21.1595ZM15.4988 19.5106C14.3396 19.6756 13.1692 19.748 12.0004 19.7544C10.8296 19.7502 9.66 19.6786 8.5005 19.5125C7.34212 19.3512 6.1905 19.1064 5.07825 18.7235C6.23212 18.8938 7.38712 18.9913 8.5395 19.0775C9.69262 19.1525 10.8461 19.199 11.9989 19.1922C13.1535 19.1956 14.3059 19.1484 15.4598 19.0737C16.6118 18.9879 17.7671 18.893 18.9214 18.7235C17.8095 19.1068 16.6575 19.3509 15.4988 19.5106ZM15.4924 17.8404C14.334 17.9889 13.1666 18.0515 12.0007 18.0556C10.8326 18.0492 9.66675 17.9844 8.50837 17.834C7.35075 17.6889 6.19913 17.4672 5.07863 17.123C6.2355 17.255 7.39013 17.33 8.5425 17.3997C9.69525 17.4594 10.8484 17.4991 12 17.4935C13.1539 17.4969 14.3051 17.4594 15.459 17.4009C16.611 17.3307 17.7656 17.2587 18.9221 17.123C17.8031 17.4759 16.6496 17.6971 15.4924 17.8404ZM15.5145 16.1593C14.3573 16.2901 13.1933 16.3445 12.03 16.3497C10.8656 16.3445 9.70238 16.2898 8.54513 16.1581C7.38825 16.0321 6.23587 15.8368 5.10825 15.53C6.26625 15.6219 7.42088 15.671 8.57288 15.7228C9.72563 15.7636 10.878 15.7936 12.0292 15.788C13.1816 15.7914 14.3333 15.7618 15.4864 15.7209C16.6388 15.6695 17.7934 15.6223 18.9514 15.53C17.8237 15.839 16.6714 16.0344 15.5145 16.1593ZM5.07825 13.9797L8.54363 14.0199C9.69675 14.0293 10.8484 14.0435 12 14.0382C13.1516 14.0416 14.3032 14.0285 15.4564 14.0191L18.9218 13.9797C17.7825 14.2175 16.6294 14.3675 15.474 14.4594C14.3182 14.5576 13.1587 14.5963 12 14.6004C10.8409 14.5944 9.68138 14.5546 8.526 14.4552C7.371 14.3619 6.21825 14.2122 5.07825 13.9797ZM12 12.7812C9.68288 12.7723 7.36538 12.7212 5.04863 12.5C7.36538 12.2788 9.68288 12.2277 12 12.2188C14.3175 12.2266 16.6342 12.2773 18.9514 12.5C16.6342 12.7227 14.3175 12.7734 12 12.7812Z"/>
</svg>
