<svg width="20" height="21" viewBox="0 0 20 21" xmlns="http://www.w3.org/2000/svg">
<path d="M4.90541 12.0409L8.45641 15.5939L14.9744 9.07588L11.4214 5.52488L4.90541 12.0409V12.0409ZM19.1034 7.16388L17.5924 5.65188C17.2086 5.86158 16.7672 5.94133 16.3343 5.87919C15.9014 5.81705 15.5003 5.61636 15.191 5.30717C14.8817 4.99798 14.6809 4.59692 14.6186 4.16404C14.5563 3.73116 14.6359 3.28974 14.8454 2.90588L13.3344 1.39388C13.1439 1.20506 12.8866 1.09912 12.6184 1.09912C12.3502 1.09912 12.0929 1.20506 11.9024 1.39388L0.892415 12.4039C0.703596 12.5943 0.597656 12.8517 0.597656 13.1199C0.597656 13.3881 0.703596 13.6454 0.892415 13.8359L2.40441 15.3459C2.78839 15.1356 3.23019 15.0555 3.66354 15.1176C4.09688 15.1797 4.49842 15.3806 4.80791 15.6903C5.11741 15.9999 5.31818 16.4015 5.38011 16.8348C5.44205 17.2682 5.3618 17.71 5.15141 18.0939L6.66341 19.6039C6.85362 19.7932 7.11106 19.8995 7.37941 19.8995C7.64777 19.8995 7.90521 19.7932 8.09541 19.6039L19.1034 8.59588C19.2927 8.40567 19.399 8.14824 19.399 7.87988C19.399 7.61152 19.2927 7.35409 19.1034 7.16388ZM8.45641 17.2189L3.28041 12.0409L11.4224 3.89988L16.5984 9.07588L8.45641 17.2189Z" />
</svg>
