<svg width="27" height="25" viewBox="0 0 27 25" xmlns="http://www.w3.org/2000/svg">
<path d="M4.5 6.5H4.575C4.92188 4.78859 6.43594 3.5 8.25 3.5C8.91094 3.5 9.56719 3.69219 10.1672 4.02734C10.7906 2.82266 12.0516 2 13.5 2C14.9484 2 16.2094 2.82313 16.8328 4.02734C17.3906 3.69219 18.0469 3.5 18.75 3.5C20.5641 3.5 22.0359 4.78859 22.425 6.5H22.5C24.1547 6.5 25.5 7.84531 25.5 9.5C25.5 10.0484 25.3547 10.5594 25.0969 11H1.90125C1.64625 10.5594 1.5 10.0484 1.5 9.5C1.5 7.84531 2.84297 6.5 4.5 6.5ZM0.75 13.7844C0.75 13.0766 1.32563 12.5 2.03578 12.5H24.9656C25.6734 12.5 26.25 13.0766 26.25 13.7844C26.25 17.2016 24.0281 20.1031 20.9484 21.1156C20.9812 21.2375 21 21.3687 21 21.5C21 22.3297 20.3297 23 19.5 23H7.5C6.67031 23 6 22.3297 6 21.5C6 21.3687 6.01875 21.2375 6.05156 21.1156C2.97188 20.1031 0.75 17.2016 0.75 13.7844Z"/>
</svg>
