<svg width="100%" height="35" viewBox="0 0 175 35" fill="none" xmlns="http://www.w3.org/2000/svg">
<path d="M11.1626 33.4804H4.57499V17.0199H0.0874023V11.6607H4.57481V7.84729C4.57481 3.32836 6.5596 0.0874023 13.1294 0.0874023C14.5189 0.0874023 16.7003 0.368127 16.7003 0.368127V5.34442H14.4091C12.0745 5.34442 11.1629 6.05623 11.1629 8.0241V11.6607H16.6129L16.1276 17.0199H11.1628L11.1626 33.4804ZM26.278 11.2325C26.182 11.2325 26.0832 11.236 25.9855 11.2384C19.8771 11.2384 17.0823 15.8439 17.0823 22.3816C17.0823 30.6172 20.7075 33.9134 26.0332 33.9134C29.0802 33.9134 31.0822 32.6278 32.2989 30.2289V33.4826H38.5647V11.663H32.2989V15.0186C31.3054 12.8597 29.2475 11.258 26.278 11.2325ZM27.8711 16.3884C30.4367 16.3884 31.9766 18.1821 31.9766 21.2331L31.9825 24.3493C31.9825 26.4056 30.7107 28.8114 27.8711 28.8114C23.5058 28.8114 23.6224 24.0868 23.6224 22.5132C23.6224 17.2199 25.9482 16.3884 27.8711 16.3884ZM41.0951 22.574C41.0951 19.9225 40.9685 11.2467 52.2454 11.2467C56.7722 11.2467 58.6624 12.6894 58.6624 12.6894L57.1432 17.4124C57.1432 17.4124 55.2554 16.3705 52.7956 16.3705C49.6451 16.3705 47.6348 18.2012 47.6348 21.4221L47.6383 23.7317C47.6383 26.8267 49.578 28.8927 52.8021 28.8927C55.043 28.8927 57.1084 27.841 57.1084 27.841L58.6238 32.4654C58.6238 32.4654 56.8954 33.9172 52.2771 33.9172C41.5397 33.9172 41.0953 26.1333 41.0953 22.574H41.0951ZM95.4007 11.2384C101.509 11.2384 104.348 15.8439 104.348 22.3816C104.348 30.6172 100.723 33.9134 95.397 33.9134C92.35 33.9134 90.0975 32.628 88.8808 30.2289V33.4826L82.6939 33.4802V0.750838L89.2627 0.176596V14.723C90.2108 12.178 93.3266 11.2384 95.4009 11.2384H95.4007ZM93.5591 16.3884C90.9935 16.3884 89.2627 18.1821 89.2627 21.2331L89.2566 24.3493C89.2528 26.4056 90.4552 28.8114 93.5591 28.8114C97.9245 28.8114 97.8078 24.0868 97.8078 22.5132C97.8078 17.2199 95.4822 16.3884 93.5591 16.3884ZM70.06 11.2565C63.1316 11.2565 59.4739 15.0428 59.4739 21.7714V23.0215C59.4739 31.7547 64.6105 34.0031 70.7343 34.0031C76.6865 34.0031 79.3808 32.3343 79.3808 32.3343L78.1516 27.8904C78.1516 27.8904 74.9823 29.242 71.5218 29.242C67.9344 29.242 66.3916 28.3255 65.9961 24.8699H79.9059V21.3047C79.9059 14.0059 75.8009 11.2563 70.0598 11.2563L70.06 11.2565ZM70.2269 15.7064C72.6252 15.7064 74.1792 17.1804 74.0939 20.5991H66.0082C66.1484 17.001 67.8243 15.7065 70.2269 15.7065V15.7064ZM117.446 11.2265C110.331 11.2265 106.586 15.2453 106.586 22.4473C106.586 32.3287 113.042 33.9193 117.458 33.9193C123.922 33.9193 128.223 30.4309 128.223 22.537C128.223 14.3208 123.387 11.2265 117.446 11.2265V11.2265ZM117.357 16.4062C120.485 16.4062 121.725 18.7532 121.725 21.4246V23.7214C121.725 26.9576 119.99 28.8295 117.345 28.8295C114.871 28.8295 113.132 27.0785 113.132 23.7214V21.4246C113.132 17.8442 115.201 16.4062 117.357 16.4062V16.4062ZM141.309 11.2265C134.195 11.2265 130.449 15.2453 130.449 22.4473C130.449 32.3287 136.906 33.9193 141.321 33.9193C147.785 33.9193 152.086 30.4309 152.086 22.537C152.086 14.3208 147.25 11.2265 141.309 11.2265V11.2265ZM141.22 16.4062C144.348 16.4062 145.588 18.7532 145.588 21.4246V23.7214C145.588 26.9576 143.853 28.8295 141.208 28.8295C138.734 28.8295 136.995 27.0785 136.995 23.7214V21.4246C136.995 17.8442 139.064 16.4062 141.22 16.4062V16.4062ZM154.569 33.4804V0.750838L161.157 0.176596V22.114L167.693 11.6607H174.65L167.832 22.4872L174.913 33.4804H167.935L161.157 22.8061V33.4804H154.569Z" fill="#1877F2"/>
</svg>
