<svg width="24" height="25" viewBox="0 0 24 25"  xmlns="http://www.w3.org/2000/svg">
<path fill-rule="evenodd" clip-rule="evenodd" d="M3 3.5H18.5V6H17.5V4.5H4V16H14.6935V17H3V3.5ZM18 10C18.3978 10 18.7794 9.84196 19.0607 9.56066C19.342 9.27936 19.5 8.89782 19.5 8.5C19.5 8.10218 19.342 7.72064 19.0607 7.43934C18.7794 7.15804 18.3978 7 18 7C17.6022 7 17.2206 7.15804 16.9393 7.43934C16.658 7.72064 16.5 8.10218 16.5 8.5C16.5 8.89782 16.658 9.27936 16.9393 9.56066C17.2206 9.84196 17.6022 10 18 10ZM19.0155 11.005C19.665 11.005 20.179 11.297 20.5155 11.748C20.83 12.1705 20.963 12.693 20.993 13.1755C21.0224 13.6704 20.955 14.1664 20.7945 14.6355C20.6445 15.0705 20.391 15.5205 20 15.829V20.75C20.0004 20.9384 19.9298 21.1201 19.8023 21.2589C19.6748 21.3976 19.4997 21.4833 19.312 21.4989C19.1242 21.5144 18.9374 21.4587 18.7888 21.3429C18.6402 21.227 18.5407 21.0594 18.51 20.8735L17.865 17H17.716L16.987 20.888C16.9524 21.0715 16.8506 21.2355 16.7014 21.3479C16.5523 21.4603 16.3666 21.513 16.1807 21.4958C15.9948 21.4785 15.8219 21.3925 15.6961 21.2546C15.5702 21.1167 15.5003 20.9367 15.5 20.75V13.6165C15.4 13.7688 15.3013 13.922 15.204 14.076L15.165 14.1375L15.155 14.1535L15.1525 14.158C15.0851 14.2662 14.9913 14.3554 14.8798 14.4173C14.7683 14.4791 14.643 14.5116 14.5155 14.5115H12.0155C11.8166 14.5115 11.6258 14.4325 11.4852 14.2918C11.3445 14.1512 11.2655 13.9604 11.2655 13.7615C11.2655 13.5626 11.3445 13.3718 11.4852 13.2312C11.6258 13.0905 11.8166 13.0115 12.0155 13.0115H14.104C14.2255 12.8235 14.3855 12.5795 14.5535 12.3345C14.7285 12.079 14.9215 11.8085 15.0935 11.5965C15.177 11.493 15.2705 11.385 15.3645 11.2965C15.4105 11.253 15.4745 11.1965 15.5525 11.1465C15.6902 11.0561 15.8509 11.0072 16.0155 11.0055H19.0155V11.005Z" />
</svg>
