<svg width="16" height="16" viewBox="0 0 16 16" fill="none" xmlns="http://www.w3.org/2000/svg">
<path d="M15.3072 8.24812L8.55724 0.748117C8.27299 0.431617 7.72699 0.431617 7.44274 0.748117L0.692738 8.24812C0.59558 8.35581 0.531806 8.48942 0.509171 8.63269C0.486536 8.77596 0.506014 8.92271 0.565238 9.05512C0.685238 9.32587 0.953738 9.49987 1.24999 9.49987H2.74999V14.7499C2.74999 14.9488 2.82901 15.1395 2.96966 15.2802C3.11031 15.4209 3.30108 15.4999 3.49999 15.4999H5.74999C5.9489 15.4999 6.13967 15.4209 6.28032 15.2802C6.42097 15.1395 6.49999 14.9488 6.49999 14.7499V11.7499H9.49999V14.7499C9.49999 14.9488 9.57901 15.1395 9.71966 15.2802C9.86031 15.4209 10.0511 15.4999 10.25 15.4999H12.5C12.6989 15.4999 12.8897 15.4209 13.0303 15.2802C13.171 15.1395 13.25 14.9488 13.25 14.7499V9.49987H14.75C14.8952 9.50049 15.0375 9.45883 15.1595 9.37998C15.2815 9.30112 15.3779 9.18848 15.437 9.05579C15.4961 8.92309 15.5152 8.77607 15.4922 8.63266C15.4692 8.48925 15.4049 8.35564 15.3072 8.24812Z" fill="#26ADE3"/>
</svg>
