<svg width="24" height="25" viewBox="0 0 24 25" xmlns="http://www.w3.org/2000/svg">
<path d="M17 22.5C18.66 22.5 20 21.16 20 19.5C20 17.84 18.66 16.5 17 16.5C15.7 16.5 14.6 17.34 14.18 18.5H9.14L11.13 15.44C11.7073 15.5197 12.2927 15.5197 12.87 15.44L13.89 17.01C14.31 16.48 14.85 16.06 15.49 15.8L14.89 14.87C16.115 14.3158 17.1543 13.4201 17.8832 12.2903C18.6122 11.1606 18.9999 9.84455 19 8.5H5C5 11.34 6.69 13.77 9.12 14.87L5.17 20.95C5.02622 21.1717 4.97602 21.4412 5.03035 21.6998C5.08469 21.9584 5.23916 22.1849 5.46 22.33C5.68168 22.4738 5.95124 22.524 6.20982 22.4696C6.46839 22.4153 6.69495 22.2608 6.84 22.04L7.84 20.49H14.18C14.6 21.66 15.7 22.5 17 22.5ZM17 18.5C17.55 18.5 18 18.95 18 19.5C18 20.05 17.55 20.5 17 20.5C16.45 20.5 16 20.05 16 19.5C16 18.95 16.45 18.5 17 18.5ZM9.41 7.5H10.41C10.56 6.35 10.64 5.86 9.52 4.54C9.1 4.04 8.84 3.77 9.06 2.5H8.07C7.86 3.61 8.1 4.55 8.96 5.46C9.18 5.7 9.75 6.13 9.41 7.5ZM11.89 7.5H12.89C13.04 6.35 13.12 5.86 12 4.54C11.58 4.04 11.32 3.76 11.54 2.5H10.55C10.34 3.61 10.58 4.55 11.44 5.46C11.67 5.7 12.24 6.13 11.89 7.5ZM14.41 7.5H15.41C15.56 6.35 15.64 5.86 14.52 4.54C14.1 4.04 13.84 3.77 14.06 2.5H13.07C12.86 3.61 13.1 4.55 13.96 5.46C14.18 5.7 14.75 6.13 14.41 7.5Z"/>
</svg>
