<svg width="102" height="102" viewBox="0 0 102 102" fill="none" xmlns="http://www.w3.org/2000/svg">
<circle cx="51" cy="51" r="49.5" fill="white" stroke="#26ADE3" stroke-width="3"/>
<path d="M44.2031 46.9219H51.4531V66.4062" stroke="#26ADE3" stroke-width="4.53125" stroke-linecap="round" stroke-linejoin="round"/>
<path d="M43.1836 66.8594H58.8164" stroke="#26ADE3" stroke-width="4.53125" stroke-miterlimit="10" stroke-linecap="round"/>
<path d="M51 40.125C50.283 40.125 49.5822 39.9124 48.9861 39.5141C48.3899 39.1158 47.9253 38.5496 47.6509 37.8872C47.3766 37.2248 47.3048 36.496 47.4447 35.7928C47.5845 35.0896 47.9298 34.4437 48.4367 33.9367C48.9437 33.4298 49.5896 33.0845 50.2928 32.9447C50.996 32.8048 51.7248 32.8766 52.3872 33.1509C53.0496 33.4253 53.6158 33.8899 54.0141 34.4861C54.4124 35.0822 54.625 35.783 54.625 36.5C54.625 37.4614 54.2431 38.3834 53.5633 39.0633C52.8834 39.7431 51.9614 40.125 51 40.125Z" fill="#26ADE3"/>
</svg>
