<svg width="90" height="90" viewBox="0 0 90 90" fill="none" xmlns="http://www.w3.org/2000/svg">
<circle cx="45" cy="45" r="44" fill="white" stroke="#26ADE3" stroke-width="2"/>
<path fill-rule="evenodd" clip-rule="evenodd" d="M38.8448 29.0837C40.6341 29.0013 41.2046 28.983 45.7626 28.983C50.3205 28.983 50.891 29.0029 52.6788 29.0837C54.4666 29.1646 55.687 29.4498 56.7548 29.8632C57.8729 30.2857 58.8873 30.9463 59.7263 31.8005C60.5805 32.6379 61.2395 33.6508 61.6605 34.7705C62.0755 35.8383 62.3592 37.0586 62.4416 38.8434C62.5239 40.6357 62.5422 41.2063 62.5422 45.7627C62.5422 50.3207 62.5224 50.8912 62.4416 52.6805C62.3607 54.4652 62.0755 55.6856 61.6605 56.7534C61.2395 57.8732 60.5794 58.8877 59.7263 59.7264C58.8873 60.5807 57.8729 61.2396 56.7548 61.6607C55.687 62.0756 54.4666 62.3593 52.6819 62.4417C50.891 62.524 50.3205 62.5424 45.7626 62.5424C41.2046 62.5424 40.6341 62.5225 38.8448 62.4417C37.06 62.3608 35.8397 62.0756 34.7719 61.6607C33.6521 61.2396 32.6376 60.5795 31.7988 59.7264C30.9452 58.8885 30.2846 57.8744 29.8631 56.7549C29.4497 55.6871 29.166 54.4668 29.0836 52.682C29.0012 50.8896 28.9829 50.3191 28.9829 45.7627C28.9829 41.2047 29.0027 40.6342 29.0836 38.8464C29.1644 37.0586 29.4497 35.8383 29.8631 34.7705C30.2852 33.651 30.9463 32.6369 31.8004 31.799C32.6379 30.9455 33.6514 30.2849 34.7704 29.8632C35.8382 29.4498 37.0585 29.1661 38.8432 29.0837H38.8448ZM52.5431 32.104C50.7736 32.0232 50.2427 32.0064 45.7626 32.0064C41.2824 32.0064 40.7516 32.0232 38.9821 32.104C37.3453 32.1788 36.4575 32.4518 35.8656 32.6822C35.0831 32.9873 34.5232 33.3488 33.936 33.9361C33.3792 34.4777 32.9508 35.137 32.6821 35.8657C32.4517 36.4576 32.1787 37.3454 32.1039 38.9822C32.0231 40.7517 32.0063 41.2825 32.0063 45.7627C32.0063 50.2429 32.0231 50.7737 32.1039 52.5432C32.1787 54.18 32.4517 55.0678 32.6821 55.6596C32.9505 56.3873 33.3792 57.0478 33.936 57.5893C34.4775 58.1461 35.138 58.5747 35.8656 58.8432C36.4575 59.0735 37.3453 59.3466 38.9821 59.4213C40.7516 59.5022 41.2809 59.519 45.7626 59.519C50.2443 59.519 50.7736 59.5022 52.5431 59.4213C54.1799 59.3466 55.0677 59.0735 55.6595 58.8432C56.4421 58.5381 57.0019 58.1766 57.5892 57.5893C58.146 57.0478 58.5746 56.3873 58.8431 55.6596C59.0734 55.0678 59.3465 54.18 59.4212 52.5432C59.5021 50.7737 59.5188 50.2429 59.5188 45.7627C59.5188 41.2825 59.5021 40.7517 59.4212 38.9822C59.3465 37.3454 59.0734 36.4576 58.8431 35.8657C58.538 35.0832 58.1765 34.5234 57.5892 33.9361C57.0475 33.3794 56.3882 32.951 55.6595 32.6822C55.0677 32.4518 54.1799 32.1788 52.5431 32.104ZM43.6193 50.9354C44.8163 51.4337 46.1491 51.5009 47.3901 51.1257C48.6311 50.7504 49.7033 49.956 50.4237 48.878C51.144 47.8 51.4677 46.5054 51.3396 45.2152C51.2114 43.9251 50.6394 42.7194 49.721 41.8042C49.1356 41.2192 48.4278 40.7712 47.6485 40.4926C46.8692 40.2139 46.0378 40.1115 45.2142 40.1928C44.3905 40.274 43.5952 40.5369 42.8853 40.9624C42.1755 41.3879 41.5688 41.9655 41.109 42.6537C40.6491 43.3418 40.3476 44.1233 40.2261 44.942C40.1045 45.7606 40.166 46.596 40.4061 47.3881C40.6462 48.1801 41.0589 48.909 41.6145 49.5224C42.1701 50.1358 42.8548 50.6184 43.6193 50.9354ZM39.6639 39.664C40.4648 38.8632 41.4156 38.2279 42.462 37.7944C43.5084 37.361 44.6299 37.1379 45.7626 37.1379C46.8952 37.1379 48.0167 37.361 49.0631 37.7944C50.1095 38.2279 51.0603 38.8632 51.8612 39.664C52.6621 40.4649 53.2974 41.4157 53.7308 42.4621C54.1643 43.5085 54.3874 44.6301 54.3874 45.7627C54.3874 46.8953 54.1643 48.0168 53.7308 49.0633C53.2974 50.1097 52.6621 51.0604 51.8612 51.8613C50.2438 53.4788 48.05 54.3875 45.7626 54.3875C43.4751 54.3875 41.2814 53.4788 39.6639 51.8613C38.0465 50.2439 37.1378 48.0501 37.1378 45.7627C37.1378 43.4753 38.0465 41.2815 39.6639 39.664ZM56.3002 38.4224C56.4987 38.2351 56.6575 38.01 56.7674 37.7603C56.8773 37.5106 56.936 37.2413 56.94 36.9685C56.944 36.6957 56.8932 36.4249 56.7906 36.1721C56.688 35.9192 56.5358 35.6896 56.3428 35.4967C56.1499 35.3037 55.9203 35.1515 55.6674 35.0489C55.4146 34.9463 55.1438 34.8955 54.871 34.8995C54.5982 34.9035 54.3289 34.9622 54.0792 35.0721C53.8295 35.182 53.6044 35.3408 53.4171 35.5393C53.053 35.9253 52.8537 36.438 52.8614 36.9685C52.8692 37.4991 53.0834 38.0057 53.4586 38.3809C53.8338 38.7561 54.3404 38.9703 54.871 38.9781C55.4015 38.9858 55.9142 38.7865 56.3002 38.4224Z" fill="#26ADE3"/>
</svg>
