<svg width="100%" height="50" viewBox="0 0 175 50" fill="none" xmlns="http://www.w3.org/2000/svg">
<g clip-path="url(#clip0_101_14917)">
<path d="M9.2717 0.308363C5.70123 1.80408 1.77606 6.02434 0.536376 11.3254C-1.03363 18.0403 5.4998 20.8803 6.03566 19.9503C6.66637 18.8563 4.86498 18.4863 4.49414 15.0022C4.01494 10.5021 6.10701 5.4738 8.74024 3.26751C9.22941 2.85761 9.20622 3.42812 9.20622 4.4834C9.20622 6.37053 9.10198 23.3112 9.10198 26.8467C9.10198 31.6307 8.90437 33.1414 8.54938 34.6342C8.18998 36.147 7.61184 37.1691 8.04963 37.5628C8.5391 38.0032 10.6288 36.9556 11.8386 35.2673C13.2891 33.2424 13.7967 30.8106 13.8881 28.1698C13.9982 24.9863 13.9935 19.9348 13.9982 17.0535C14.0023 14.4108 14.0425 6.67267 13.9518 2.02078C13.9295 0.879756 10.7651 -0.31735 9.2717 0.308363Z" fill="#343433"/>
<path d="M136.059 22.6973C135.944 25.1843 135.393 27.1284 134.71 28.4996C133.387 31.1543 130.643 31.9785 129.477 28.1626C128.842 26.0825 128.812 22.6084 129.269 19.7056C129.734 16.7485 131.032 14.5152 133.181 14.7166C135.3 14.9157 136.292 17.647 136.059 22.6973ZM100.324 38.1279C100.296 42.2603 99.6452 45.8836 98.2505 46.936C96.2723 48.4282 93.6136 47.3089 94.1641 44.2934C94.6512 41.6249 96.955 38.8998 100.33 35.5701C100.33 35.5701 100.337 36.3294 100.324 38.1279ZM99.7841 22.673C99.6631 24.9383 99.0759 27.2139 98.4352 28.4996C97.1127 31.1543 94.3479 31.9841 93.2022 28.1626C92.4188 25.5514 92.6064 22.172 92.994 20.0427C93.497 17.28 94.7161 14.7169 96.9057 14.7169C99.0345 14.7169 100.084 17.0524 99.7841 22.673ZM79.0833 22.6386C78.9535 25.0375 78.4855 27.043 77.7344 28.4996C76.3755 31.1361 73.6871 31.972 72.5014 28.1626C71.6467 25.4154 71.9377 21.6699 72.2932 19.6466C72.8209 16.644 74.1422 14.5152 76.2049 14.7169C78.3237 14.9239 79.3537 17.647 79.0833 22.6386ZM173.95 25.4407C173.432 25.4407 173.196 25.9748 173 26.8733C172.322 29.9983 171.609 30.7036 170.69 30.7036C169.663 30.7036 168.74 29.1565 168.502 26.059C168.316 23.6234 168.346 19.1398 168.584 14.6796C168.633 13.7632 168.38 12.8565 165.922 11.9636C164.865 11.5795 163.327 11.014 162.562 12.8618C160.399 18.0821 159.553 22.2266 159.354 23.91C159.343 23.9972 159.237 24.0151 159.218 23.8113C159.091 22.463 158.807 20.0124 158.772 14.8643C158.765 13.8598 158.552 13.0048 157.444 12.3048C156.724 11.8506 154.54 11.0472 153.753 12.003C153.072 12.7846 152.282 14.8881 151.462 17.3816C150.796 19.4082 150.331 20.7791 150.331 20.7791C150.331 20.7791 150.34 15.3109 150.348 13.2368C150.352 12.4543 149.815 12.1935 149.653 12.1462C148.925 11.9351 147.489 11.5819 146.88 11.5819C146.129 11.5819 145.944 12.0018 145.944 12.614C145.944 12.6944 145.826 19.8134 145.826 24.7915C145.826 25.0079 145.826 25.2436 145.827 25.4944C145.411 27.7823 144.063 30.8883 142.597 30.8883C141.128 30.8883 140.436 29.5899 140.436 23.6551C140.436 20.1933 140.54 18.6876 140.591 16.1836C140.62 14.7413 140.678 13.6337 140.674 13.3824C140.664 12.6116 139.331 12.2232 138.711 12.0796C138.088 11.9351 137.546 11.8787 137.123 11.9028C136.525 11.9369 136.102 12.3292 136.102 12.8691C136.102 13.1589 136.105 13.7092 136.105 13.7092C135.334 12.498 134.094 11.655 133.27 11.4107C131.048 10.7509 128.73 11.3358 126.981 13.7823C125.592 15.7264 124.754 17.9283 124.424 21.0918C124.183 23.4047 124.262 25.7498 124.69 27.7333C124.173 29.9713 123.211 30.8883 122.159 30.8883C120.631 30.8883 119.524 28.3948 119.652 24.0821C119.737 21.2457 120.305 19.2549 120.925 16.375C121.19 15.1474 120.975 14.5046 120.436 13.8886C119.941 13.3237 118.888 13.035 117.373 13.39C116.295 13.6431 114.752 13.9153 113.341 14.1244C113.341 14.1244 113.426 13.7847 113.496 13.1857C113.863 10.0445 110.45 10.2993 109.361 11.3027C108.711 11.9017 108.268 12.6081 108.1 13.8783C107.834 15.8941 109.478 16.8448 109.478 16.8448C108.938 19.3142 107.616 22.5394 106.251 24.8713C105.52 26.1207 104.961 27.0465 104.239 28.0307C104.236 27.6643 104.234 27.2975 104.233 26.9329C104.216 21.7419 104.285 17.6567 104.316 16.1839C104.346 14.7416 104.403 13.6634 104.4 13.4121C104.392 12.8486 104.063 12.6354 103.378 12.3659C102.773 12.1274 102.057 11.9624 101.314 11.9049C100.377 11.8321 99.8123 12.3289 99.827 12.9167C99.8299 13.0277 99.8299 13.7092 99.8299 13.7092C99.0591 12.498 97.8194 11.655 96.9947 11.4107C94.7731 10.7512 92.4549 11.3358 90.7064 13.7823C89.317 15.7264 88.407 18.4545 88.1492 21.0677C87.909 23.5033 87.9534 25.5728 88.2808 27.3166C87.9275 29.0625 86.9119 30.8883 85.7635 30.8883C84.2954 30.8883 83.4601 29.5899 83.4601 23.6551C83.4601 20.1933 83.564 18.6876 83.6151 16.1839C83.6447 14.7416 83.702 13.6337 83.6988 13.3827C83.6879 12.6119 82.3551 12.2235 81.735 12.0796C81.0861 11.9295 80.5259 11.8743 80.0957 11.9063C79.5281 11.9483 79.1291 12.4566 79.1291 12.8357V13.7092C78.3583 12.498 77.1187 11.655 76.2939 11.4107C74.0723 10.7512 71.7671 11.3452 70.0056 13.7823C68.8569 15.3714 67.927 17.1332 67.4484 21.0331C67.3101 22.16 67.2491 23.2156 67.257 24.2019C66.7989 27.0033 64.7759 30.2317 63.121 30.2317C62.1526 30.2317 61.2304 28.3534 61.2304 24.3504C61.2304 19.0182 61.5604 11.4266 61.6162 10.6949C61.6162 10.6949 63.7071 10.6593 64.112 10.6546C65.1549 10.6432 66.0995 10.6678 67.4887 10.5968C68.1854 10.5613 68.8567 8.06075 68.1376 7.75127C67.8117 7.61121 65.5082 7.48848 64.595 7.4691C63.8272 7.45178 61.6896 7.29351 61.6896 7.29351C61.6896 7.29351 61.8813 2.25434 61.926 1.722C61.9638 1.27833 61.3898 1.04989 61.0606 0.911299C60.2602 0.57275 59.5441 0.41067 58.6952 0.23567C57.5225 -0.00627647 56.9904 0.230385 56.8865 1.22019C56.73 2.72237 56.6489 7.12233 56.6489 7.12233C55.7883 7.12233 52.8486 6.95408 51.9877 6.95408C51.1878 6.95408 50.3246 10.3939 51.4304 10.4362C52.7026 10.4855 54.9198 10.5284 56.3897 10.5724C56.3897 10.5724 56.3242 18.2894 56.3242 20.6722C56.3242 20.9256 56.3254 21.1696 56.3268 21.4066C55.5179 25.6227 52.6686 27.9003 52.6686 27.9003C53.2805 25.1109 52.0305 23.0162 49.779 21.243C48.9495 20.5897 47.312 19.3527 45.4798 17.997C45.4798 17.997 46.5409 16.9514 47.482 14.847C48.1488 13.3563 48.1776 11.6509 46.5409 11.2748C43.8367 10.6529 41.6069 12.6389 40.9418 14.7592C40.4265 16.402 40.7013 17.6206 41.7108 18.8867C41.7845 18.9792 41.8644 19.0737 41.9469 19.1688C41.3364 20.3454 40.4979 21.9295 39.7876 23.158C37.8162 26.5688 36.3269 29.2666 35.2015 29.2666C34.3018 29.2666 34.3138 26.5274 34.3138 23.9628C34.3138 21.7522 34.4771 18.4283 34.6075 14.9871C34.6506 13.849 34.0816 13.2006 33.1276 12.6134C32.548 12.2566 31.3109 11.5552 30.5945 11.5552C29.5222 11.5552 26.4283 11.7011 23.5049 20.1572C23.1364 21.223 22.4127 23.1651 22.4127 23.1651L22.4752 12.9963C22.4752 12.7579 22.3481 12.5274 22.0574 12.3697C21.5647 12.1022 20.2489 11.5552 19.0791 11.5552C18.5218 11.5552 18.2435 11.8144 18.2435 12.3312L18.1416 28.2404C18.1416 29.4495 18.173 30.8595 18.2925 31.4761C18.4117 32.0936 18.6046 32.596 18.8434 32.8949C19.0821 33.1932 19.3581 33.4208 19.8129 33.5147C20.2363 33.6019 22.5554 33.8997 22.6757 33.0135C22.8202 31.9515 22.8258 30.8028 24.0434 26.5188C25.9391 19.8492 28.4102 16.5949 29.5724 15.4392C29.7756 15.2372 30.0075 15.2252 29.9964 15.5558C29.9468 17.0181 29.7723 20.6722 29.6549 23.7761C29.3401 32.0833 30.8514 33.6231 33.011 33.6231C34.6632 33.6231 36.9923 31.9814 39.489 27.8258C41.0455 25.236 42.5567 22.6967 43.6426 20.8666C44.3992 21.5672 45.2484 22.3209 46.097 23.1263C48.0689 24.9979 48.7164 26.7764 48.2868 28.4635C47.9583 29.7534 46.7209 31.0826 44.5187 29.7907C43.8769 29.4137 43.6029 29.1224 42.9575 28.6975C42.6108 28.4694 42.0814 28.401 41.764 28.6403C40.9395 29.2619 40.4679 30.0526 40.1986 31.0316C39.9367 31.9841 40.8907 32.4876 41.8796 32.9281C42.7312 33.3071 44.5613 33.6507 45.7285 33.6897C50.2761 33.8418 53.9191 31.494 56.4551 25.4377C56.9091 30.6683 58.8411 33.6278 62.1979 33.6278C64.442 33.6278 66.6921 30.7271 67.676 27.8733C67.9585 29.0367 68.3766 30.0482 68.9166 30.9038C71.5031 35.0019 76.5208 34.1199 79.0413 30.6399C79.8206 29.5646 79.9392 29.1782 79.9392 29.1782C80.3068 32.4641 82.953 33.6122 84.4681 33.6122C86.1649 33.6122 87.917 32.81 89.1449 30.0456C89.2888 30.3457 89.4459 30.6322 89.6173 30.9038C92.2039 35.0019 97.2216 34.1199 99.7421 30.6399C99.861 30.4766 99.9641 30.3286 100.054 30.1956L100.128 32.354C100.128 32.354 98.6903 33.673 97.8077 34.4822C93.9181 38.0471 90.9633 40.7511 90.746 43.8999C90.4695 47.9149 93.7237 49.4071 96.1895 49.6027C98.8034 49.8103 101.046 48.3651 102.422 46.3426C103.633 44.5623 104.426 40.7308 104.368 36.9466C104.345 35.4312 104.306 33.5045 104.277 31.4391C105.642 29.8535 107.18 27.8493 108.597 25.5038C110.14 22.9475 111.794 19.5144 112.642 16.8428C112.642 16.8428 114.079 16.8551 115.613 16.7547C116.103 16.7227 116.244 16.8228 116.154 17.1825C116.044 17.617 114.216 24.6693 115.884 29.3673C117.027 32.5834 119.601 33.6181 121.128 33.6181C122.915 33.6181 124.624 32.2686 125.54 30.2646C125.651 30.4881 125.766 30.7042 125.892 30.9038C128.479 35.0019 133.479 34.1146 136.017 30.6399C136.59 29.8559 136.915 29.1782 136.915 29.1782C137.46 32.579 140.104 33.6295 141.619 33.6295C143.197 33.6295 144.694 32.9827 145.909 30.1078C145.96 31.3736 146.04 32.4087 146.166 32.7349C146.243 32.9345 146.692 33.185 147.018 33.306C148.461 33.8412 149.934 33.5881 150.478 33.478C150.856 33.4017 151.15 33.099 151.19 32.3173C151.296 30.2649 151.231 26.8166 151.853 24.2535C152.897 19.9525 153.872 18.2842 154.334 17.4582C154.593 16.9954 154.884 16.9191 154.895 17.4089C154.917 18.3998 154.966 21.31 155.371 25.2199C155.668 28.0953 156.065 29.7951 156.37 30.333C157.24 31.8713 158.316 31.9441 159.191 31.9441C159.748 31.9441 160.913 31.7903 160.809 30.8113C160.758 30.3342 160.847 27.3853 161.877 23.148C162.549 20.3809 163.67 17.881 164.075 16.9667C164.224 16.6296 164.293 16.8953 164.291 16.947C164.206 18.8526 164.014 25.0857 164.791 28.4946C165.843 33.1128 168.887 33.6295 169.948 33.6295C172.213 33.6295 174.065 31.9069 174.689 27.3739C174.839 26.2831 174.617 25.4407 173.95 25.4407Z" fill="#343433"/>
</g>
<defs>
<clipPath id="clip0_101_14917">
<rect width="175" height="49.9023" fill="white"/>
</clipPath>
</defs>
</svg>
