<svg width="30" height="30" viewBox="0 0 30 30" fill="none" xmlns="http://www.w3.org/2000/svg">
<path d="M21 2.50049H17.75C13.75 2.50049 11.25 5.00049 11.25 9.00049V14.063H19.0625C19.575 14.063 20 14.488 20 15.0005C20 15.513 19.575 15.938 19.0625 15.938H11.25V21.0005C11.25 25.0005 13.75 27.5005 17.75 27.5005H20.9875C24.9875 27.5005 27.4875 25.0005 27.4875 21.0005V9.00049C27.5 5.00049 25 2.50049 21 2.50049Z" fill="#26ADE3"/>
<path d="M5.69993 14.0628L8.28743 11.4753C8.47493 11.2878 8.56243 11.0503 8.56243 10.8128C8.56243 10.5753 8.47493 10.3253 8.28743 10.1503C7.92493 9.78779 7.32493 9.78779 6.96243 10.1503L2.77493 14.3378C2.41243 14.7003 2.41243 15.3003 2.77493 15.6628L6.96243 19.8503C7.32493 20.2128 7.92493 20.2128 8.28743 19.8503C8.64993 19.4878 8.64993 18.8878 8.28743 18.5253L5.69993 15.9378H11.2499V14.0628H5.69993Z" fill="#26ADE3"/>
</svg>
