<svg width="21" height="30" viewBox="0 0 800 977" fill="none" xmlns="http://www.w3.org/2000/svg">
<g clip-path="url(#clip0_2_9435)">
<path d="M400 976.77C383.12 976.77 362.69 971.57 298.9 908.66C258.51 868.82 214.22 818.59 174.19 767.24C94.73 665.26 0 518.77 0 400C0 179.44 179.44 0 400 0C620.56 0 800 179.44 800 400C800 518.77 705.27 665.26 625.81 767.24C585.81 818.59 541.49 868.82 501.1 908.66C437.31 971.57 416.88 976.77 400 976.77ZM400 86.54C227.16 86.54 86.54 227.16 86.54 400C86.54 554.81 330.07 828.55 400 884C469.93 828.53 713.46 554.79 713.46 400C713.46 227.16 572.84 86.54 400 86.54Z" fill="url(#paint0_linear_2_9435)"/>
<path d="M400 616.35C280.7 616.35 183.65 519.3 183.65 400C183.65 280.7 280.7 183.65 400 183.65C519.3 183.65 616.35 280.7 616.35 400C616.35 519.3 519.3 616.35 400 616.35ZM400 270.19C374.326 270.19 349.229 277.803 327.881 292.067C306.534 306.331 289.896 326.604 280.071 350.324C270.246 374.043 267.676 400.144 272.684 425.325C277.693 450.505 290.056 473.635 308.211 491.789C326.365 509.944 349.495 522.307 374.675 527.316C399.856 532.324 425.956 529.754 449.676 519.929C473.396 510.104 493.669 493.466 507.933 472.118C522.197 450.771 529.81 425.674 529.81 400C529.76 365.588 516.067 332.599 491.734 308.266C467.401 283.933 434.412 270.24 400 270.19Z" fill="url(#paint1_linear_2_9435)"/>
</g>
<defs>
<linearGradient id="paint0_linear_2_9435" x1="153.45" y1="651.74" x2="668.75" y2="193.7" gradientUnits="userSpaceOnUse">
<stop stop-color="#007EE2"/>
<stop offset="1" stop-color="#1ED1C4"/>
</linearGradient>
<linearGradient id="paint1_linear_2_9435" x1="59580.4" y1="274316" x2="282551" y2="76118.2" gradientUnits="userSpaceOnUse">
<stop stop-color="#007EE2"/>
<stop offset="1" stop-color="#1ED1C4"/>
</linearGradient>
<clipPath id="clip0_2_9435">
<rect width="800" height="976.77" fill="white"/>
</clipPath>
</defs>
</svg>
