<svg width="24" height="25" viewBox="0 0 24 25" xmlns="http://www.w3.org/2000/svg">
<path d="M10.1817 3.37988C4.11839 3.37988 0.480469 8.24372 0.480469 10.6759C0.480469 13.108 1.69295 14.932 4.11839 14.932C6.54383 14.932 7.75679 15.5397 7.75679 17.3637C7.75679 19.7954 9.57551 21.6194 12.0009 21.6194C19.8835 21.6194 23.5209 17.3637 23.5209 13.108C23.5205 5.81204 17.4561 3.37988 10.1817 3.37988ZM8.66591 5.81204C8.86522 5.81229 9.06254 5.8518 9.24658 5.92831C9.43063 6.00482 9.59781 6.11683 9.73856 6.25794C9.87932 6.39906 9.99091 6.56652 10.067 6.75075C10.143 6.93499 10.182 7.13241 10.1817 7.33172C10.1817 8.17172 9.50303 8.85188 8.66591 8.85188C7.82879 8.85188 7.15007 8.17124 7.15007 7.33172C7.14982 7.13241 7.18882 6.93499 7.26487 6.75075C7.34091 6.56652 7.45249 6.39906 7.59325 6.25794C7.73401 6.11683 7.90119 6.00482 8.08523 5.92831C8.26928 5.8518 8.46659 5.81229 8.66591 5.81204ZM13.5158 5.81204C13.7151 5.81229 13.9125 5.8518 14.0965 5.92831C14.2806 6.00482 14.4477 6.11683 14.5885 6.25794C14.7292 6.39906 14.8408 6.56652 14.9169 6.75075C14.9929 6.93499 15.0319 7.13241 15.0317 7.33172C15.032 7.53108 14.993 7.72854 14.917 7.91284C14.841 8.09713 14.7294 8.26465 14.5887 8.40581C14.4479 8.54698 14.2807 8.65903 14.0966 8.73557C13.9125 8.81211 13.7152 8.85163 13.5158 8.85188C13.3165 8.85157 13.1192 8.812 12.9352 8.73543C12.7512 8.65887 12.584 8.5468 12.4433 8.40564C12.3026 8.26448 12.1911 8.09699 12.1151 7.91273C12.0391 7.72846 12.0002 7.53104 12.0005 7.33172C12 6.92927 12.1593 6.54309 12.4435 6.25811C12.7277 5.97313 13.1134 5.81268 13.5158 5.81204ZM18.3667 8.24372C18.5661 8.24391 18.7635 8.28339 18.9476 8.3599C19.1318 8.43641 19.299 8.54845 19.4398 8.68962C19.5807 8.83079 19.6923 8.99833 19.7683 9.18266C19.8444 9.36698 19.8833 9.56449 19.883 9.76388C19.8833 9.96326 19.8444 10.1607 19.7683 10.345C19.6923 10.5293 19.5806 10.6968 19.4398 10.838C19.299 10.9791 19.1317 11.0911 18.9476 11.1676C18.7635 11.244 18.5661 11.2834 18.3667 11.2836C18.1674 11.2834 17.9701 11.2439 17.786 11.1674C17.602 11.0909 17.4348 10.9789 17.2941 10.8378C17.1533 10.6966 17.0418 10.5292 16.9658 10.3449C16.8899 10.1606 16.851 9.96319 16.8513 9.76388C16.851 9.56455 16.8899 9.3671 16.9658 9.1828C17.0418 8.99851 17.1533 8.83099 17.2941 8.68982C17.4348 8.54865 17.6019 8.43659 17.786 8.36004C17.97 8.2835 18.1674 8.24397 18.3667 8.24372ZM4.42175 9.46004C4.62102 9.46023 4.8183 9.49968 5.00232 9.57615C5.18633 9.65261 5.35348 9.76458 5.49421 9.90566C5.63493 10.0467 5.74648 10.2142 5.82248 10.3984C5.89847 10.5826 5.93742 10.78 5.93711 10.9792C5.93711 11.8192 5.25839 12.4994 4.42175 12.4994C3.58511 12.4994 2.90591 11.8188 2.90591 10.9792C2.90553 10.5768 3.065 10.1907 3.34926 9.90577C3.63352 9.62088 4.0193 9.46055 4.42175 9.46004ZM12.0005 15.5397C13.0051 15.5397 13.8192 16.3557 13.8192 17.3642C13.8192 18.3712 13.0051 19.1877 12.0005 19.1877C10.9958 19.1877 10.1817 18.3712 10.1817 17.3642C10.1813 17.125 10.228 16.888 10.3192 16.6668C10.4104 16.4456 10.5442 16.2446 10.7131 16.0752C10.882 15.9057 11.0826 15.7712 11.3035 15.6794C11.5244 15.5875 11.7612 15.54 12.0005 15.5397Z"/>
</svg>
