<svg width="24" height="25" viewBox="0 0 24 25" xmlns="http://www.w3.org/2000/svg">
<path d="M19 16.5C17.8 16.5 16.7417 16.125 15.825 15.375C14.9083 14.625 14.3333 13.6667 14.1 12.5H11.125L9.925 10.5H14.1C14.1833 10.1333 14.296 9.78333 14.438 9.45C14.5793 9.11667 14.7667 8.8 15 8.5H8.7L7.5 6.5H16.05L14.95 3.5H11V1.5H14.95C15.3833 1.5 15.7667 1.62067 16.1 1.862C16.4333 2.104 16.675 2.425 16.825 2.825L18.175 6.5H19C20.3833 6.5 21.5627 6.98733 22.538 7.962C23.5127 8.93733 24 10.1167 24 11.5C24 12.8833 23.5127 14.0623 22.538 15.037C21.5627 16.0123 20.3833 16.5 19 16.5ZM19 14.5C19.8333 14.5 20.5417 14.2083 21.125 13.625C21.7083 13.0417 22 12.3333 22 11.5C22 10.6667 21.7083 9.95833 21.125 9.375C20.5417 8.79167 19.8333 8.5 19 8.5H18.925L19.9 11.175L18 11.85L17.05 9.225C16.7167 9.50833 16.4583 9.85 16.275 10.25C16.0917 10.65 16 11.0667 16 11.5C16 12.3333 16.2917 13.0417 16.875 13.625C17.4583 14.2083 18.1667 14.5 19 14.5ZM7 23.5C6.16667 23.5 5.45833 23.2083 4.875 22.625C4.29167 22.0417 4 21.3333 4 20.5H0V14.5H2V11.5H0V9.5H7L10 14.5H12C12.55 14.5 13.021 14.6957 13.413 15.087C13.8043 15.479 14 15.95 14 16.5V18.5C14 19.05 13.8043 19.521 13.413 19.913C13.021 20.3043 12.55 20.5 12 20.5H10C10 21.3333 9.70833 22.0417 9.125 22.625C8.54167 23.2083 7.83333 23.5 7 23.5ZM4 14.5H7.675L5.875 11.5H4V14.5ZM7 21.5C7.28333 21.5 7.521 21.404 7.713 21.212C7.90433 21.0207 8 20.7833 8 20.5C8 20.2167 7.90433 19.9793 7.713 19.788C7.521 19.596 7.28333 19.5 7 19.5C6.71667 19.5 6.479 19.596 6.287 19.788C6.09567 19.9793 6 20.2167 6 20.5C6 20.7833 6.09567 21.0207 6.287 21.212C6.479 21.404 6.71667 21.5 7 21.5Z"/>
</svg>
