<svg xmlns="http://www.w3.org/2000/svg" xmlns:xlink="http://www.w3.org/1999/xlink" viewBox="100 618.22 1300.02 309.64">
  <defs>
    <linearGradient id="a" data-name="Degradado sin nombre 4" x1="574.85" y1="897.52" x2="957.3" y2="897.52" gradientUnits="userSpaceOnUse">
      <stop offset="0" stop-color="#007ee2"/>
      <stop offset="1" stop-color="#1ed1c4"/>
    </linearGradient>
    <linearGradient id="b" x1="574.85" y1="897.56" x2="957.3" y2="897.56" xlink:href="#a"/>
    <linearGradient id="e" x1="574.85" y1="897.6" x2="957.3" y2="897.6" xlink:href="#a"/>
    <linearGradient id="f" x1="769.33" y1="736.8" x2="863.11" y2="653.45" xlink:href="#a"/>
    <linearGradient id="g" x1="766.38" y1="733.49" x2="860.16" y2="650.13" xlink:href="#a"/>
  </defs>
  <g>
    <g>
      <g>
        <path d="M100,637.91c0-2.43,1.85-5,5.72-5h10a10.8,10.8,0,0,1,3.14.35,5.17,5.17,0,0,1,3.69,2.77l48.16,105.29,48.52-105.46a4.85,4.85,0,0,1,4.8-3h12.92c3.13,0,4.79,2.25,4.79,4.16V762.45a4.57,4.57,0,0,1-4.79,4.16H226.76a4.58,4.58,0,0,1-4.8-4.16V673.81l-40.78,89.85a5.65,5.65,0,0,1-5.16,3H165.5a6.19,6.19,0,0,1-5.35-3l-40.78-89.5v88.29a4.39,4.39,0,0,1-4.61,4.16h-9c-4.24,0-5.72-2.77-5.72-5.2Z"/>
        <path d="M298.72,763.14a4.18,4.18,0,0,1,.19-1.21l.55-1c.37-1,.92-2.26,1.66-4,1.29-3.3,3.32-8,5.9-13.53,4.8-11.1,11.44-26,18.08-41.11,13.29-30.18,27.31-61.4,29.34-65.91.56-1.74,2-3.3,5-3.3h10.52a5.41,5.41,0,0,1,5.17,3.3c2,4.51,15.86,35.73,29.15,65.91,6.64,15.27,13.28,30.18,18.08,41.28,2.4,5.55,4.43,10.24,5.91,13.53l1.66,3.82a6.76,6.76,0,0,1,.36,1,2.83,2.83,0,0,1,.37,1.21c0,2.61-2.58,3.47-4.24,3.47H415.88c-1.84,0-4.06-1.21-4.61-2.77L394.3,725H335.07l-17,38.86a5.1,5.1,0,0,1-4.79,2.77H303.15C301.49,766.61,298.72,765.75,298.72,763.14Zm88.38-54.46L365,657.51l-22.7,51.17Z"/>
        <path d="M492.35,766.61c-2.58,0-4.8-1.73-4.8-4V637a4.24,4.24,0,0,1,4.61-4.16h10.15a4.28,4.28,0,0,1,4.62,4.16V750h47.41a4.4,4.4,0,0,1,4.62,4.16v8.5a4.21,4.21,0,0,1-4.43,4Z"/>
        <path d="M622.45,766.61c-2.59,0-4.8-1.73-4.8-4V637a4.24,4.24,0,0,1,4.61-4.16h10.15A4.27,4.27,0,0,1,637,637V750h47.42a4.4,4.4,0,0,1,4.61,4.16v8.5a4.21,4.21,0,0,1-4.42,4Z"/>
        <path d="M949.92,766.61c-3.14,0-4.8-2.25-4.8-4.16V637c0-1.91,1.48-4.16,4.8-4.16h39.49c28.6,0,47.41,14,47.41,39,0,20.46-12.73,34.51-35.42,38.16,3.5,5.2,10.89,15.61,17.9,25.84,4.61,6.59,9,13,12.36,17.87l4.06,5.9c.37.86.92,1.38,1.1,1.9a4.36,4.36,0,0,1,.74,1.74,3.13,3.13,0,0,1-2,2.77,4.64,4.64,0,0,1-2.4.52h-13.28a5.28,5.28,0,0,1-4.43-2.25l-35.06-53.25H964.68v51.34a4.27,4.27,0,0,1-4.61,4.16Zm39.85-72.15c17.53,0,27.5-7.46,27.5-22.38s-10-22.72-27.5-22.72H964.68v45.1Z"/>
        <path d="M1091.22,699.83c0-26.36,12.91-51.17,42.44-62.79a86.33,86.33,0,0,1,31.18-5.72c19.93,0,37.64,5.9,51.84,18a3.45,3.45,0,0,1,1.48,2.77c0,2.26-9,10.06-11.62,10.06a5.62,5.62,0,0,1-2.22-.52l-1.1-.69c-11.08-8.67-23.25-12.49-38.38-12.49-34.5,0-54.25,22.9-54.25,51.52s19.56,51,54.25,51c11.44,0,22.14-2.43,31.55-7.8a20.56,20.56,0,0,0,3.14-2.26c1.1-.69,2.21-1.56,3.5-2.43a4.07,4.07,0,0,1,2-.69,3,3,0,0,1,1.29-.17,2.91,2.91,0,0,1,1.29.17,3,3,0,0,1,2,.87c.74.69,2.77,2.08,4.43,3.64l2.58,2.43a3.12,3.12,0,0,1,.93,1.21,4,4,0,0,1,.74,1.74,5,5,0,0,1-1.48,3.12c-13.65,12-32.84,17.69-52,17.69C1117.79,768.52,1091.22,737.47,1091.22,699.83Z"/>
        <path d="M1268.08,763.14a4.4,4.4,0,0,1,.18-1.21l.56-1c.36-1,.92-2.26,1.66-4,1.29-3.3,3.32-8,5.9-13.53,4.8-11.1,11.44-26,18.08-41.11,13.29-30.18,27.31-61.4,29.34-65.91.55-1.74,2-3.3,5-3.3h10.52a5.39,5.39,0,0,1,5.16,3.3c2,4.51,15.87,35.73,29.16,65.91,6.64,15.27,13.28,30.18,18.08,41.28,2.4,5.55,4.43,10.24,5.9,13.53l1.66,3.82a6.13,6.13,0,0,1,.37,1,2.83,2.83,0,0,1,.37,1.21c0,2.61-2.58,3.47-4.24,3.47h-10.52c-1.85,0-4.06-1.21-4.61-2.77l-17-38.86h-59.22l-17,38.86a5.11,5.11,0,0,1-4.8,2.77h-10.14C1270.84,766.61,1268.08,765.75,1268.08,763.14Zm88.38-54.46-22.14-51.17-22.7,51.17Z"/>
      </g>
      <g>
        <path d="M593.07,870.28a2.22,2.22,0,0,1,2.39-2.21h4.17a4.38,4.38,0,0,1,1.31.15,2.18,2.18,0,0,1,1.54,1.22l20.14,46.38,20.3-46.45a2,2,0,0,1,2-1.3h5.41a1.9,1.9,0,0,1,2,1.83v55.24a2,2,0,0,1-2,1.83h-4.25a2,2,0,0,1-2-1.83v-39L627,925.67a2.36,2.36,0,0,1-2.16,1.3h-4.4a2.56,2.56,0,0,1-2.23-1.3l-17.06-39.42v38.89a1.88,1.88,0,0,1-1.93,1.83h-3.78a2.19,2.19,0,0,1-2.39-2.29Z" fill="url(#a)"/>
        <path d="M681.81,925.44a1.91,1.91,0,0,1,.08-.53l.23-.46c.16-.46.39-1,.7-1.76.54-1.45,1.39-3.51,2.47-6,2-4.89,4.78-11.46,7.56-18.1,5.55-13.3,11.42-27,12.27-29a2,2,0,0,1,2.08-1.45h4.4a2.26,2.26,0,0,1,2.16,1.45c.85,2,6.64,15.73,12.19,29,2.78,6.72,5.56,13.29,7.56,18.18,1,2.44,1.86,4.51,2.47,6l.7,1.68a2.47,2.47,0,0,1,.15.46,1.24,1.24,0,0,1,.16.53,1.63,1.63,0,0,1-1.78,1.53h-4.4a2.18,2.18,0,0,1-1.93-1.22l-7.1-17.11H697l-7.1,17.11a2.14,2.14,0,0,1-2,1.22h-4.24C683,927,681.81,926.59,681.81,925.44Zm37-24-9.26-22.53L700,901.45Z" fill="url(#b)"/>
        <path d="M762.84,897.56c0-16.89,11.19-30.18,31-30.18,8.34,0,15.51,2.52,21.45,7.87a1.79,1.79,0,0,1,.62,1.22c0,.84-3.93,4.51-4.86,4.51a2.14,2.14,0,0,1-1-.23c-.16-.08-.24-.23-.39-.38a23.56,23.56,0,0,0-15.82-5.43c-14.58,0-22.92,9.86-22.92,22.62,0,12.22,7.49,22.53,21.69,22.53,12.34,0,18.44-6.87,20.14-17.26H793.48a1.79,1.79,0,0,1-1.93-1.83v-3.6a1.88,1.88,0,0,1,1.93-1.83H819A1.87,1.87,0,0,1,821,897.4c0,16-8.18,30.33-28.32,30.33C773,927.73,762.84,913.75,762.84,897.56Z" fill="url(#b)"/>
        <path d="M855.52,927a1.9,1.9,0,0,1-2-1.76V869.9a1.82,1.82,0,0,1,1.93-1.83h4.25a1.83,1.83,0,0,1,1.93,1.83v55.31a1.86,1.86,0,0,1-1.86,1.76Z" fill="url(#a)"/>
        <path d="M894.26,897.56c0-11.61,5.4-22.54,17.75-27.66a34.44,34.44,0,0,1,13-2.52,31.5,31.5,0,0,1,21.68,8,1.55,1.55,0,0,1,.62,1.22c0,1-3.78,4.43-4.86,4.43a2.27,2.27,0,0,1-.93-.23l-.46-.3a23.82,23.82,0,0,0-16.05-5.51c-14.43,0-22.69,10.09-22.69,22.69s8.18,22.46,22.69,22.46a25.25,25.25,0,0,0,13.19-3.43,7.68,7.68,0,0,0,1.31-1c.47-.3.93-.68,1.47-1.07a1.64,1.64,0,0,1,.85-.3,1.86,1.86,0,0,1,1.08,0,1.24,1.24,0,0,1,.85.38c.31.31,1.16.92,1.85,1.6l1.08,1.07a1.53,1.53,0,0,1,.39.54,1.85,1.85,0,0,1,.31.76,2.26,2.26,0,0,1-.62,1.38c-5.71,5.27-13.74,7.79-21.76,7.79C905.37,927.81,894.26,914.13,894.26,897.56Z" fill="url(#e)"/>
      </g>
    </g>
    <g>
      <path d="M814.2,796c-3.07,0-6.79-.94-18.4-12.39a273.75,273.75,0,0,1-22.7-25.74c-14.46-18.56-31.7-45.22-31.7-66.83A72.8,72.8,0,0,1,887,691c0,21.61-17.24,48.27-31.7,66.83a272.29,272.29,0,0,1-22.69,25.74C821,795,817.27,796,814.2,796Zm0-162a57.11,57.11,0,0,0-57.05,57c0,28.17,44.32,78,57.05,88.08,12.72-10.09,57-59.91,57-88.08A57.11,57.11,0,0,0,814.2,633.94Z" fill="url(#f)"/>
      <path d="M814.2,730.36A39.37,39.37,0,1,1,853.57,691,39.42,39.42,0,0,1,814.2,730.36Zm0-63A23.62,23.62,0,1,0,837.82,691,23.65,23.65,0,0,0,814.2,667.37Z" fill="url(#g)"/>
    </g>
  </g>
</svg>