<svg width="30" height="35" viewBox="0 0 30 35" fill="none" xmlns="http://www.w3.org/2000/svg">
<path d="M29.5775 11.324C27.8028 3.5155 20.9916 0 15.0084 0C15.0084 0 15.0084 0 14.9915 0C9.02534 0 2.19715 3.4986 0.422499 11.3071C-1.55497 20.0282 3.78589 27.4141 8.6197 32.062C10.4113 33.786 12.7099 34.648 15.0084 34.648C17.307 34.648 19.6056 33.786 21.3803 32.062C26.2141 27.4141 31.555 20.0451 29.5775 11.324ZM15.0084 19.7916C12.0676 19.7916 9.68449 17.4085 9.68449 14.4676C9.68449 11.5268 12.0676 9.14368 15.0084 9.14368C17.9493 9.14368 20.3324 11.5268 20.3324 14.4676C20.3324 17.4085 17.9493 19.7916 15.0084 19.7916Z" fill="#26ADE3"/>
</svg>
