<svg width="90" height="90" viewBox="0 0 90 90" fill="none" xmlns="http://www.w3.org/2000/svg">
<circle cx="45" cy="45" r="44" fill="white" stroke="#26ADE3" stroke-width="2"/>
<path d="M45.7624 29.7457C42.049 29.771 38.4598 31.0858 35.6088 33.4651C32.7578 35.8445 30.8221 39.1405 30.1328 42.7895C29.4436 46.4384 30.0436 50.2134 31.8303 53.4688C33.617 56.7241 36.4794 59.2575 39.9276 60.6356C39.6959 59.1189 39.6959 57.5759 39.9276 56.0593L41.8154 48.0508C41.5166 47.3255 41.3687 46.547 41.3806 45.7627C41.3806 43.5432 42.6734 41.8728 44.2751 41.8728C44.5653 41.8685 44.8529 41.9269 45.1184 42.0441C45.3839 42.1612 45.6209 42.3344 45.8132 42.5517C46.0056 42.769 46.1486 43.0253 46.2327 43.3031C46.3167 43.5809 46.3397 43.8735 46.3001 44.161C46.3001 45.5339 45.4306 47.5932 44.973 49.4923C44.8745 49.8465 44.8628 50.2192 44.9388 50.5789C45.0149 50.9385 45.1765 51.2746 45.41 51.5585C45.6434 51.8425 45.9419 52.066 46.28 52.2102C46.6182 52.3544 46.9861 52.415 47.3526 52.3868C50.1899 52.3868 52.3865 49.3779 52.3865 45.0534C52.4151 44.1746 52.2601 43.2995 51.9316 42.484C51.603 41.6684 51.1081 40.9303 50.4784 40.3167C49.8486 39.7031 49.0979 39.2275 48.2741 38.9203C47.4503 38.613 46.5715 38.4808 45.6937 38.5322C44.7566 38.4919 43.8211 38.6422 42.9438 38.974C42.0664 39.3058 41.2656 39.8122 40.5896 40.4625C39.9136 41.1128 39.3767 41.8935 39.0112 42.7573C38.6457 43.6211 38.4593 44.5501 38.4632 45.4881C38.4505 46.7948 38.8509 48.0721 39.6073 49.1377C39.6623 49.1988 39.7015 49.2725 39.7214 49.3523C39.7414 49.432 39.7415 49.5155 39.7217 49.5953C39.5959 50.0987 39.3213 51.197 39.2755 51.4144C39.2298 51.6317 39.0353 51.769 38.7378 51.6317C36.7357 50.6936 35.4887 47.7762 35.4887 45.4195C35.4887 40.3741 39.1611 35.7292 46.0713 35.7292C51.62 35.7292 55.9446 39.6877 55.9446 44.9847C55.9446 50.4991 52.5124 54.9381 47.6272 54.9381C46.9111 54.963 46.2 54.8086 45.5587 54.489C44.9173 54.1693 44.366 53.6945 43.9548 53.1076L42.9594 56.9173C42.4823 58.3979 41.813 59.8095 40.9688 61.1161C42.5244 61.5758 44.1403 61.7995 45.7624 61.7796C50.0104 61.7796 54.0843 60.0921 57.0881 57.0884C60.0918 54.0846 61.7793 50.0106 61.7793 45.7627C61.7793 41.5147 60.0918 37.4407 57.0881 34.437C54.0843 31.4332 50.0104 29.7457 45.7624 29.7457Z" fill="#26ADE3"/>
</svg>
