<svg width="102" height="102" viewBox="0 0 102 102" fill="none" xmlns="http://www.w3.org/2000/svg">
<circle cx="51" cy="51" r="49.5" fill="white" stroke="#26ADE3" stroke-width="3"/>
<path d="M51 26C37.215 26 26 37.215 26 51C26 64.785 37.215 76 51 76C64.785 76 76 64.785 76 51C76 37.215 64.785 26 51 26ZM31 51C31 48.7525 31.39 46.595 32.0775 44.5775L36 48.5L41 53.5V58.5L46 63.5L48.5 66V70.8275C38.6525 69.59 31 61.18 31 51ZM66.825 63.1825C65.1925 61.8675 62.7175 61 61 61V58.5C61 57.1739 60.4732 55.9021 59.5355 54.9645C58.5979 54.0268 57.3261 53.5 56 53.5H46V46C47.3261 46 48.5979 45.4732 49.5355 44.5355C50.4732 43.5979 51 42.3261 51 41V38.5H53.5C54.8261 38.5 56.0979 37.9732 57.0355 37.0355C57.9732 36.0979 58.5 34.8261 58.5 33.5V32.4725C65.82 35.445 71 42.625 71 51C70.9995 55.4117 69.5307 59.6978 66.825 63.1825Z" fill="#26ADE3"/>
</svg>
