<svg width="90" height="90" viewBox="0 0 90 90" fill="none" xmlns="http://www.w3.org/2000/svg">
<circle cx="45" cy="45" r="44" fill="white" stroke="#26ADE3" stroke-width="2"/>
<path d="M52.5354 36.3356C52.5354 36.3356 53.3133 37.0983 52.5354 36.3356C51.4926 35.1452 50.918 33.6165 50.9184 32.0339H46.2048V50.9492C46.1685 51.9728 45.7363 52.9423 44.9994 53.6537C44.2625 54.365 43.2782 54.7626 42.254 54.7627C40.0879 54.7627 38.2879 52.9933 38.2879 50.7966C38.2879 48.1729 40.8201 46.2051 43.4286 47.0136V42.1933C38.1659 41.4916 33.5591 45.5797 33.5591 50.7966C33.5591 55.8763 37.7693 59.4916 42.2387 59.4916C47.0286 59.4916 50.9184 55.6017 50.9184 50.7966V41.2017C52.8298 42.5744 55.1246 43.3109 57.4777 43.3068V38.5933C57.4777 38.5933 54.6099 38.7305 52.5354 36.3356Z" fill="#26ADE3"/>
</svg>
