<svg width="90" height="90" viewBox="0 0 90 90" fill="none" xmlns="http://www.w3.org/2000/svg">
<circle cx="45" cy="45" r="44" fill="white" stroke="#26ADE3" stroke-width="2"/>
<path d="M63.523 34.9886C62.2493 35.553 60.881 35.9344 59.4425 36.1068C60.9267 35.2186 62.0371 33.8209 62.5665 32.1742C61.1721 33.0025 59.6459 33.5855 58.0543 33.8979C56.9841 32.7552 55.5665 31.9978 54.0216 31.7432C52.4768 31.4887 50.8911 31.7514 49.5108 32.4904C48.1305 33.2294 47.0328 34.4034 46.3881 35.8302C45.7435 37.257 45.5879 38.8567 45.9455 40.381C43.12 40.2391 40.3558 39.5047 37.8324 38.2254C35.3091 36.9461 33.0829 35.1506 31.2984 32.9552C30.6882 34.0078 30.3374 35.2281 30.3374 36.5278C30.3367 37.6978 30.6248 38.8498 31.1762 39.8818C31.7276 40.9137 32.5251 41.7936 33.4981 42.4434C32.3697 42.4075 31.2662 42.1026 30.2794 41.554V41.6456C30.2793 43.2865 30.8469 44.877 31.886 46.1471C32.925 47.4172 34.3715 48.2887 35.9799 48.6137C34.9332 48.897 33.8357 48.9387 32.7704 48.7357C33.2243 50.1477 34.1082 51.3824 35.2986 52.267C36.489 53.1516 37.9263 53.6418 39.4091 53.669C36.8919 55.645 33.7832 56.7169 30.583 56.7122C30.0161 56.7123 29.4497 56.6792 28.8867 56.613C32.1351 58.7016 35.9164 59.81 39.7782 59.8057C52.8511 59.8057 59.9977 48.9783 59.9977 39.5878C59.9977 39.2827 59.9901 38.9746 59.9764 38.6695C61.3665 37.6642 62.5664 36.4193 63.5199 34.9932L63.523 34.9886Z" fill="#26ADE3"/>
</svg>
