<svg width="102" height="102" viewBox="0 0 102 102" fill="none" xmlns="http://www.w3.org/2000/svg">
<circle cx="51" cy="51" r="49.5" fill="white" stroke="#26ADE3" stroke-width="3"/>
<path d="M51 32.25C32.3653 32.25 22.875 51 22.875 51C22.875 51 32.3653 69.75 51 69.75C69.6366 69.75 79.125 51 79.125 51C79.125 51 69.6366 32.25 51 32.25ZM51 66.6225C35.4713 66.6225 27.5625 51 27.5625 51C27.5625 51 35.4713 35.3737 51 35.3737C66.5306 35.3737 74.4375 51 74.4375 51C74.4375 51 66.5306 66.6225 51 66.6225Z" fill="#26ADE3"/>
<path d="M50.9062 64.5938C43.4109 64.5938 37.3125 58.4953 37.3125 51C37.3125 43.5047 43.4109 37.4062 50.9062 37.4062C58.4016 37.4062 64.5 43.5047 64.5 51C64.5 58.4953 58.4025 64.5938 50.9062 64.5938ZM50.9062 40.2188C44.9616 40.2188 40.125 45.0553 40.125 51C40.125 56.9447 44.9616 61.7812 50.9062 61.7812C56.8509 61.7812 61.6875 56.9447 61.6875 51C61.6875 45.0553 56.8509 40.2188 50.9062 40.2188Z" fill="#26ADE3"/>
<path d="M57.9355 50.9945C57.9355 54.8833 54.7865 58.0352 50.908 58.0352C49.9838 58.035 49.0686 57.8528 48.2147 57.4989C47.3609 57.1449 46.5851 56.6262 45.9318 55.9724C45.2785 55.3186 44.7604 54.5424 44.4072 53.6883C44.0539 52.8342 43.8724 51.9188 43.873 50.9945C43.873 47.1123 47.0212 43.9727 50.908 43.9727C54.7865 43.9727 57.9355 47.1133 57.9355 50.9945Z" fill="#26ADE3"/>
</svg>
